<svg width="228" height="104" viewBox="0 0 228 104" fill="none" xmlns="http://www.w3.org/2000/svg">
<path fill-rule="evenodd" clip-rule="evenodd" d="M186.804 52.5229C186.875 31.8999 162.286 14.9933 118.52 14.8429C74.7544 14.6924 32.3571 31.3687 32.2862 51.9916C32.2153 72.6146 74.4969 89.582 118.263 89.7324C162.028 89.8829 186.733 73.1458 186.804 52.5229ZM206.856 52.5918C206.935 29.4049 167.393 10.4721 118.536 10.3041C69.6783 10.1361 30.0069 28.7966 29.9272 51.9835C29.8475 75.1704 69.3896 94.1032 118.247 94.2712C167.105 94.4392 206.776 75.7787 206.856 52.5918Z" fill="#FFBA09"/>
<path d="M46.1589 55.0001H42.4159L38.0841 66.898L33.9206 55.0001H30.1355L20 83.0001H24.0794L31.986 61.0962L36.0234 72.5737L32.2383 83.0001H36.3178L40.0187 72.7419L44.2664 61.0962L51.9206 83.0001H56L46.1589 55.0001Z" fill="#898989"/>
<path d="M72.2574 82.7814V79.4574C71.3703 80.5362 70.3446 81.3964 69.1802 82.0379C68.0158 82.6794 66.7822 83.0001 65.4792 83.0001C64.0376 83.0001 62.6792 82.7231 61.404 82.1691C60.1564 81.6151 59.0475 80.8278 58.0772 79.8073C57.1069 78.8159 56.3446 77.6496 55.7901 76.3083C55.2634 74.9378 55 73.5091 55 72.022C55 70.5349 55.2634 69.1207 55.7901 67.7794C56.3446 66.409 57.1069 65.2135 58.0772 64.193C59.0475 63.1724 60.1564 62.3851 61.404 61.8311C62.6792 61.2771 64.0376 61.0001 65.4792 61.0001C66.8099 61.0001 68.0574 61.2917 69.2218 61.8749C70.4139 62.458 71.4257 63.2745 72.2574 64.3242V61.4375H76V82.7814H72.2574ZM65.4792 64.8928C64.5644 64.8928 63.6772 65.0823 62.8178 65.4614C61.9861 65.8113 61.2653 66.3069 60.6554 66.9484C60.0455 67.5899 59.5604 68.3626 59.2 69.2665C58.8673 70.1413 58.701 71.0598 58.701 72.022C58.701 72.9842 58.8673 73.9027 59.2 74.7775C59.5604 75.6522 60.0455 76.4103 60.6554 77.0518C61.2653 77.6933 61.9861 78.2036 62.8178 78.5826C63.6772 78.9325 64.5644 79.1075 65.4792 79.1075C66.3941 79.1075 67.2673 78.9325 68.099 78.5826C68.9307 78.2036 69.6515 77.6933 70.2614 77.0518C70.8713 76.4103 71.3426 75.6522 71.6752 74.7775C72.0356 73.9027 72.2158 72.9842 72.2158 72.022C72.2158 71.0598 72.0356 70.1413 71.6752 69.2665C71.3426 68.3626 70.8713 67.5899 70.2614 66.9484C69.6515 66.3069 68.9307 65.8113 68.099 65.4614C67.2673 65.0823 66.3941 64.8928 65.4792 64.8928Z" fill="#898989"/>
<path d="M87.4475 38.0581C86.7697 37.7497 86.1625 37.5956 85.6258 37.5956C84.4961 37.5956 83.564 37.988 82.8297 38.7729C82.0389 39.6138 81.6434 40.5808 81.6434 41.674V55.0444H78V41.674C78 40.1604 78.3813 38.7729 79.1439 37.5115C79.9347 36.2501 81.008 35.2691 82.3637 34.5683C83.3804 34.0918 84.4678 33.8535 85.6258 33.8535C86.5579 33.8535 87.4475 34.0217 88.2949 34.3581C89.1422 34.6944 90.0319 35.241 90.9639 35.9979L87.4475 38.0581Z" fill="#53A35B"/>
<path d="M104.138 55.0444L97.6981 47.266V55.0444H93.9699V27.0842H97.6981V39.1513L103.46 33.7694H109.01L98.969 43.0194L109.052 55.0444H104.138Z" fill="#53A35B"/>
<path d="M121.03 40.2865C120.945 39.7819 120.761 39.3054 120.479 38.8569C119.942 37.9319 118.883 37.4694 117.301 37.4694C116.454 37.4694 115.805 37.5675 115.353 37.7638C114.76 37.988 114.308 38.3104 113.997 38.7308C113.714 39.1513 113.573 39.6138 113.573 40.1183C113.573 40.735 113.799 41.2956 114.251 41.8001C114.731 42.3327 115.508 42.613 116.581 42.641C118.474 42.7251 119.999 42.9494 121.157 43.3138C122.343 43.6782 123.247 44.3088 123.868 45.2058C124.518 46.1028 124.843 47.3641 124.843 48.9899C124.843 50.6437 124.207 52.0732 122.936 53.2785C122.315 53.8672 121.58 54.3437 120.733 54.7081C119.914 55.0725 119.053 55.2547 118.149 55.2547H117.513C115.254 55.2547 113.432 54.61 112.048 53.3206C110.918 52.2835 110.212 50.8259 109.93 48.9479H113.7C113.842 49.6206 114.124 50.1672 114.548 50.5876C115.197 51.2043 116.101 51.5126 117.259 51.5126C117.57 51.5126 117.796 51.4986 117.937 51.4706C118.925 51.4145 119.702 51.1482 120.267 50.6717C120.832 50.1672 121.114 49.5505 121.114 48.8217C121.114 47.8126 120.804 47.1539 120.182 46.8456C119.561 46.5372 118.361 46.3831 116.581 46.3831C114.35 46.3831 112.641 45.6823 111.455 44.2808C110.495 43.2157 110.015 41.8702 110.015 40.2444C110.015 39.88 110.029 39.5997 110.057 39.4035C110.283 37.5816 111.031 36.1941 112.302 35.241C113.602 34.26 115.31 33.7694 117.429 33.7694C118.982 33.7694 120.338 34.1058 121.496 34.7785C122.315 35.2831 123.021 35.9838 123.614 36.8808C124.179 37.7778 124.546 38.899 124.715 40.2444L124.631 40.2865H121.03Z" fill="#53A35B"/>
<path d="M141.731 55.0444V42.1365C141.731 40.8191 141.265 39.6979 140.333 38.7729C139.909 38.3524 139.401 38.016 138.808 37.7638C138.243 37.5115 137.664 37.3854 137.071 37.3854C135.8 37.3854 134.699 37.8478 133.766 38.7729C132.834 39.6979 132.368 40.8191 132.368 42.1365V55.0444H128.64V27.0001H132.368V35.4933C133.724 34.2319 135.292 33.6013 137.071 33.6013C138.201 33.6013 139.274 33.8255 140.291 34.274C141.308 34.6944 142.211 35.2971 143.002 36.0819C143.765 36.8668 144.358 37.7918 144.782 38.8569C145.233 39.8941 145.459 40.9872 145.459 42.1365V55.0444H141.731Z" fill="#53A35B"/>
<path d="M159.994 55.2547C158.553 55.2547 157.184 54.9744 155.884 54.4138C154.585 53.8532 153.441 53.0823 152.453 52.1013C151.464 51.1202 150.687 49.985 150.123 48.6956C149.558 47.4062 149.275 46.0467 149.275 44.6172C149.275 43.1596 149.558 41.7721 150.123 40.4547C150.687 39.1372 151.464 37.988 152.453 37.0069C153.441 36.0259 154.585 35.2691 155.884 34.7365C157.184 34.1759 158.553 33.8956 159.994 33.8956C161.462 33.8956 162.861 34.1759 164.188 34.7365C165.515 35.2691 166.673 36.0259 167.662 37.0069C168.651 37.988 169.413 39.1372 169.95 40.4547C170.515 41.7721 170.797 43.1596 170.797 44.6172C170.797 46.0467 170.515 47.4062 169.95 48.6956C169.413 49.985 168.651 51.1202 167.662 52.1013C166.673 53.0823 165.515 53.8532 164.188 54.4138C162.861 54.9744 161.462 55.2547 159.994 55.2547ZM159.994 37.6376C158.101 37.6376 156.477 38.3103 155.122 39.6558C154.472 40.3005 153.964 41.0573 153.597 41.9263C153.229 42.7952 153.046 43.6922 153.046 44.6172C153.046 45.5422 153.229 46.4251 153.597 47.266C153.964 48.1069 154.472 48.8497 155.122 49.4944C155.771 50.1391 156.506 50.6437 157.325 51.0081C158.172 51.3725 159.062 51.5547 159.994 51.5547C160.926 51.5547 161.83 51.3725 162.705 51.0081C163.581 50.6437 164.329 50.1391 164.951 49.4944C165.572 48.8497 166.066 48.1069 166.433 47.266C166.801 46.4251 166.984 45.5422 166.984 44.6172C166.984 43.6922 166.801 42.7952 166.433 41.9263C166.066 41.0573 165.572 40.3005 164.951 39.6558C164.329 39.0111 163.581 38.5206 162.705 38.1842C161.858 37.8198 160.954 37.6376 159.994 37.6376Z" fill="#53A35B"/>
<path d="M185.324 55.4228C183.714 55.4228 182.372 55.1706 181.299 54.666C180.226 54.1335 179.251 53.3066 178.376 52.1853V64.0001H174.605V34.5263H178.376V37.4694C179.251 36.4043 180.296 35.5494 181.511 34.9047C182.725 34.26 183.996 33.9376 185.324 33.9376C186.764 33.9376 188.134 34.2179 189.433 34.7785C190.761 35.3111 191.905 36.0819 192.865 37.091C193.853 38.1001 194.616 39.2634 195.153 40.5808C195.718 41.8702 196 43.2437 196 44.7013C196 46.1588 195.718 47.5323 195.153 48.8217C194.616 50.1111 193.853 51.2604 192.865 52.2694C191.905 53.2505 190.761 54.0213 189.433 54.5819C188.134 55.1425 186.764 55.4228 185.324 55.4228ZM185.324 37.7638C184.392 37.7638 183.502 37.946 182.655 38.3103C181.807 38.6467 181.073 39.1372 180.452 39.7819C179.83 40.4266 179.336 41.1835 178.969 42.0524C178.602 42.8933 178.418 43.7763 178.418 44.7013C178.418 45.6263 178.602 46.5092 178.969 47.3501C179.336 48.191 179.83 48.9338 180.452 49.5785C181.073 50.2232 181.807 50.7278 182.655 51.0922C183.502 51.4566 184.392 51.6388 185.324 51.6388C186.256 51.6388 187.146 51.4566 187.993 51.0922C188.84 50.7278 189.575 50.2232 190.196 49.5785C190.817 48.9338 191.297 48.191 191.636 47.3501C192.004 46.5092 192.187 45.6263 192.187 44.7013C192.187 43.7763 192.004 42.8933 191.636 42.0524C191.297 41.1835 190.817 40.4266 190.196 39.7819C189.575 39.1372 188.84 38.6467 187.993 38.3103C187.146 37.946 186.256 37.7638 185.324 37.7638Z" fill="#53A35B"/>
<path d="M46.1589 55.0001H42.4159L38.0841 43.1022L33.9206 55.0001H30.1355L20 27.0001H24.0794L31.986 48.904L36.0234 37.4265L32.2383 27.0001H36.3178L40.0187 37.2584L44.2664 48.904L51.9206 27.0001H56L46.1589 55.0001Z" fill="#53A35B"/>
<path d="M63.9567 55.0001C62.4843 55.0001 61.084 54.7245 59.7559 54.1734C58.4278 53.6222 57.2585 52.8643 56.248 51.8997C55.2375 50.9352 54.4436 49.819 53.8661 48.5513C53.2887 47.2836 53 45.947 53 44.5415C53 43.1084 53.2887 41.7442 53.8661 40.4489C54.4436 39.1537 55.2375 38.0237 56.248 37.0592C57.2585 36.0946 58.4278 35.3505 59.7559 34.8269C61.084 34.2757 62.4843 34.0001 63.9567 34.0001C65.458 34.0001 66.8871 34.2757 68.2441 34.8269C69.6011 35.3505 70.7848 36.0946 71.7953 37.0592C72.8058 38.0237 73.5853 39.1537 74.1339 40.4489C74.7113 41.7442 75 43.1084 75 44.5415C75 45.947 74.7113 47.2836 74.1339 48.5513C73.5853 49.819 72.8058 50.9352 71.7953 51.8997C70.7848 52.8643 69.6011 53.6222 68.2441 54.1734C66.8871 54.7245 65.458 55.0001 63.9567 55.0001ZM63.9567 37.6793C62.0223 37.6793 60.3622 38.3407 58.9764 39.6635C58.3123 40.2974 57.7927 41.0415 57.4173 41.8958C57.042 42.7501 56.8543 43.632 56.8543 44.5415C56.8543 45.4509 57.042 46.319 57.4173 47.1458C57.7927 47.9726 58.3123 48.7029 58.9764 49.3367C59.6404 49.9706 60.3911 50.4667 61.2283 50.8249C62.0945 51.1832 63.0039 51.3623 63.9567 51.3623C64.9094 51.3623 65.8333 51.1832 66.7283 50.8249C67.6234 50.4667 68.3885 49.9706 69.0236 49.3367C69.6588 48.7029 70.164 47.9726 70.5394 47.1458C70.9147 46.319 71.1024 45.4509 71.1024 44.5415C71.1024 43.632 70.9147 42.7501 70.5394 41.8958C70.164 41.0415 69.6588 40.2974 69.0236 39.6635C68.3885 39.0296 67.6234 38.5474 66.7283 38.2167C65.8622 37.8584 64.9383 37.6793 63.9567 37.6793Z" fill="#53A35B"/>
<path d="M87.4764 65.2971C86.7965 64.9797 86.1874 64.821 85.6491 64.821C84.5159 64.821 83.581 65.225 82.8444 66.033C82.0512 66.8986 81.6546 67.8942 81.6546 69.0195V82.7837H78V69.0195C78 67.4613 78.3825 66.033 79.1474 64.7345C79.9406 63.4359 81.0171 62.426 82.377 61.7046C83.3969 61.2141 84.4876 60.9688 85.6491 60.9688C86.584 60.9688 87.4764 61.1419 88.3263 61.4882C89.1762 61.8345 90.0686 62.3971 91.0035 63.1762L87.4764 65.2971Z" fill="#898989"/>
<path d="M104.217 82.7837L97.7582 74.7762V82.7837H94.0186V54.0001H97.7582V66.4225L103.537 60.8822H109.104L99.033 70.4046L109.147 82.7837H104.217Z" fill="#898989"/>
<path d="M114.107 73.6076C114.107 74.3001 114.348 75.0215 114.829 75.7718C115.339 76.522 115.92 77.1568 116.571 77.6762C117.761 78.6285 119.15 79.1046 120.736 79.1046C123.257 79.1046 125.311 77.8638 126.898 75.3822L130.127 77.33C129.023 79.1479 127.663 80.5474 126.048 81.5285C124.433 82.5096 122.662 83.0001 120.736 83.0001C119.291 83.0001 117.917 82.726 116.614 82.1777C115.311 81.6006 114.163 80.8071 113.172 79.7971C112.18 78.7872 111.401 77.6185 110.835 76.2912C110.296 74.9638 110.027 73.5643 110.027 72.0927C110.027 70.621 110.296 69.2215 110.835 67.8942C111.401 66.5379 112.18 65.3548 113.172 64.3449C114.135 63.3349 115.268 62.5558 116.571 62.0076C117.903 61.4593 119.291 61.1852 120.736 61.1852C122.181 61.1852 123.555 61.4593 124.858 62.0076C126.19 62.5558 127.337 63.3349 128.3 64.3449C130.397 66.5379 131.445 69.0772 131.445 71.9628C131.445 72.4822 131.402 73.0305 131.317 73.6076H114.107ZM120.736 64.7345C119.574 64.7345 118.484 64.9942 117.464 65.5136C116.444 66.033 115.622 66.7255 114.999 67.5912C114.404 68.428 114.107 69.3225 114.107 70.2747H127.365C127.365 69.3225 127.054 68.428 126.43 67.5912C125.835 66.7255 125.028 66.033 124.008 65.5136C122.988 64.9942 121.898 64.7345 120.736 64.7345Z" fill="#898989"/>
<path d="M140.813 65.0374V82.7837H137.201V65.0374H134.014V61.1419H137.201V54.0001H140.813V61.1419H144V65.0374H140.813Z" fill="#898989"/>
</svg>
