<svg width="55" height="55" viewBox="0 0 55 55" fill="none" xmlns="http://www.w3.org/2000/svg">
<path fill-rule="evenodd" clip-rule="evenodd" d="M46 26.5096C46 16.5 40.4139 5.81396 27.0599 5.5C13.7059 5.18605 1.73822 11.9864 1.43227 25C1.12631 38.0136 13.7955 48.9323 27.1495 49.2463C40.5035 49.5602 45.694 39.5232 46 26.5096ZM54.6079 27.7619C54.9519 13.1304 43.1458 0.985084 28.2382 0.634602C13.3307 0.284119 0.966828 11.8612 0.622836 26.4927C0.278844 41.1242 12.085 53.2695 26.9925 53.62C41.9001 53.9704 54.2639 42.3934 54.6079 27.7619Z" fill="#FFBA09"/>
<path d="M33.024 27.4927H30.176L26.88 36.5487L23.712 27.4927H20.832L13.12 48.8047H16.224L22.24 32.1327L25.312 40.8687L22.432 48.8047H25.536L28.352 40.9967L31.584 32.1327L37.408 48.8047H40.512L33.024 27.4927Z" fill="#898989"/>
<path d="M33.024 27.4927H30.176L26.88 18.4367L23.712 27.4927H20.832L13.12 6.18068H16.224L22.24 22.8527L25.312 14.1167L22.432 6.18068H25.536L28.352 13.9887L31.584 22.8527L37.408 6.18068H40.512L33.024 27.4927Z" fill="#53A35B"/>
</svg>
